<?xml version="1.0" standalone="no"?>
<!DOCTYPE svg PUBLIC "-//W3C//DTD SVG 20010904//EN"
 "http://www.w3.org/TR/2001/REC-SVG-20010904/DTD/svg10.dtd">
<svg version="1.0" xmlns="http://www.w3.org/2000/svg"
 width="512.000000pt" height="512.000000pt" viewBox="0 0 512.000000 512.000000"
 preserveAspectRatio="xMidYMid meet">
<metadata>
Created by potrace 1.11, written by Peter Selinger 2001-2013
</metadata>
<g transform="translate(0.000000,512.000000) scale(0.100000,-0.100000)"
fill="#000000" stroke="none">
<path d="M1522 3409 c-261 -38 -452 -262 -452 -530 0 -132 54 -273 137 -361
15 -15 25 -29 22 -31 -2 -2 -35 -21 -74 -41 -93 -50 -164 -104 -241 -184 l-64
-66 0 -353 0 -353 750 0 750 0 0 354 0 354 -50 55 c-62 68 -136 125 -236 182
-43 25 -82 46 -88 48 -5 2 10 27 33 57 177 224 161 524 -38 720 -121 119 -283
173 -449 149z"/>
<path d="M2770 3305 l0 -105 425 0 425 0 0 105 0 105 -425 0 -425 0 0 -105z"/>
<path d="M2777 2983 c-4 -3 -7 -51 -7 -105 l0 -98 745 0 745 0 0 105 0 105
-738 0 c-406 0 -742 -3 -745 -7z"/>
<path d="M2770 2455 l0 -105 745 0 745 0 0 105 0 105 -745 0 -745 0 0 -105z"/>
</g>
</svg>
